<?xml version="1.0" encoding="UTF-8"?>

<!DOCTYPE svg PUBLIC '-//W3C//DTD SVG 20001102//EN' 'http://www.w3.org/TR/2000/CR-SVG-20001102/DTD/svg-20001102.dtd'>
<svg style="fill-opacity:1; color-interpolation:sRGB; color-rendering:auto; text-rendering:auto; stroke:black; stroke-linecap:square; stroke-miterlimit:10; stroke-opacity:1; shape-rendering:auto; fill:black; stroke-dasharray:none; font-weight:normal; stroke-width:1; font-family:&apos;Lucida Sans&apos;; font-style:normal; stroke-linejoin:miter; font-size:12; image-rendering:auto; stroke-dashoffset:0;" width="494" height="526">
  <!--Generated by the Batik Graphics2D SVG Generator-->
  <defs id="genericDefs" />
  <g>
    <defs id="defs1">
      <clipPath clipPathUnits="userSpaceOnUse" id="clipPath1">
        <path d="M0 0 L494 0 L494 526 L0 526 L0 0 Z" />
      </clipPath>
      <clipPath clipPathUnits="userSpaceOnUse" id="clipPath2">
        <path d="M292 53 L292 66 L305 66 L305 53 Z" />
      </clipPath>
      <clipPath clipPathUnits="userSpaceOnUse" id="clipPath3">
        <path d="M162 270 L162 291 L237 291 L237 270 Z" />
      </clipPath>
      <clipPath clipPathUnits="userSpaceOnUse" id="clipPath4">
        <path d="M300 500 L300 516 L316 516 L316 500 Z" />
      </clipPath>
      <clipPath clipPathUnits="userSpaceOnUse" id="clipPath5">
        <path d="M162 350 L162 371 L230 371 L230 350 Z" />
      </clipPath>
      <clipPath clipPathUnits="userSpaceOnUse" id="clipPath6">
        <path d="M392 270 L392 291 L468 291 L468 270 Z" />
      </clipPath>
      <clipPath clipPathUnits="userSpaceOnUse" id="clipPath7">
        <path d="M262 140 L262 161 L330 161 L330 140 Z" />
      </clipPath>
    </defs>
    <g>
      <circle style="clip-path:url(#clipPath2); stroke:none;" r="6" cx="298" cy="59" />
    </g>
    <g>
      <rect x="270" y="210" width="60" style="clip-path:url(#clipPath1); stroke:none;" height="6" />
      <rect x="270" y="210" width="60" style="clip-path:url(#clipPath1); fill:none;" height="6" />
      <rect x="165" y="273" width="75" style="clip-path:url(#clipPath1); fill:navy; stroke:none;" height="20" />
      <path d="M165.5 273 C158.596435546875 273 153 277.4771423339844 153 283 C153 288.5228576660156 158.596435546875 293 165.5 293 L165.5 283 Z" style="fill:navy; clip-path:url(#clipPath1); stroke:none;" />
      <path d="M239.5 293 C246.403564453125 293 252 288.5228576660156 252 283 C252 277.4771423339844 246.403564453125 273 239.5 273 L239.5 283 Z" style="fill:navy; clip-path:url(#clipPath1); stroke:none;" />
      <rect x="162" y="270" width="75" style="clip-path:url(#clipPath1); fill:white; stroke:none;" height="20" />
      <path d="M162.5 270 C155.596435546875 270 150 274.4771423339844 150 280 C150 285.5228576660156 155.596435546875 290 162.5 290 L162.5 280 Z" style="fill:white; clip-path:url(#clipPath1); stroke:none;" />
      <path d="M236.5 290 C243.403564453125 290 249 285.5228576660156 249 280 C249 274.4771423339844 243.403564453125 270 236.5 270 L236.5 280 Z" style="fill:white; clip-path:url(#clipPath1); stroke:none;" />
      <line x1="162" x2="237" y1="270" style="clip-path:url(#clipPath1); fill:none;" y2="270" />
      <line x1="162" x2="237" y1="290" style="clip-path:url(#clipPath1); fill:none;" y2="290" />
      <path d="M162.5 270 C155.596435546875 270 150 274.4771423339844 150 280 C150 285.5228576660156 155.596435546875 290 162.5 290" style="fill:none; clip-path:url(#clipPath1);" />
      <path d="M236.5 290 C243.403564453125 290 249 285.5228576660156 249 280 C249 274.4771423339844 243.403564453125 270 236.5 270" style="fill:none; clip-path:url(#clipPath1);" />
    </g>
    <g style="font-family:sans-serif;">
      <text x="166" y="283" style="clip-path:url(#clipPath3); stroke:none;">Jobstep 2a
      </text>
    </g>
    <g>
      <circle style="clip-path:url(#clipPath4); stroke:none;" r="4.5" cx="307.5" cy="507.5" />
      <circle style="fill:none; clip-path:url(#clipPath4);" r="7.5" cx="307.5" cy="507.5" />
    </g>
    <g>
      <rect x="280" y="430" width="60" style="clip-path:url(#clipPath1); stroke:none;" height="6" />
      <rect x="280" y="430" width="60" style="clip-path:url(#clipPath1); fill:none;" height="6" />
      <rect x="165" y="353" width="68" style="clip-path:url(#clipPath1); fill:navy; stroke:none;" height="20" />
      <path d="M165.5 353 C158.596435546875 353 153 357.4771423339844 153 363 C153 368.5228576660156 158.596435546875 373 165.5 373 L165.5 363 Z" style="fill:navy; clip-path:url(#clipPath1); stroke:none;" />
      <path d="M232.5 373 C239.403564453125 373 245 368.5228576660156 245 363 C245 357.4771423339844 239.403564453125 353 232.5 353 L232.5 363 Z" style="fill:navy; clip-path:url(#clipPath1); stroke:none;" />
      <rect x="162" y="350" width="68" style="clip-path:url(#clipPath1); fill:white; stroke:none;" height="20" />
      <path d="M162.5 350 C155.596435546875 350 150 354.4771423339844 150 360 C150 365.5228576660156 155.596435546875 370 162.5 370 L162.5 360 Z" style="fill:white; clip-path:url(#clipPath1); stroke:none;" />
      <path d="M229.5 370 C236.403564453125 370 242 365.5228576660156 242 360 C242 354.4771423339844 236.403564453125 350 229.5 350 L229.5 360 Z" style="fill:white; clip-path:url(#clipPath1); stroke:none;" />
      <line x1="162" x2="230" y1="350" style="clip-path:url(#clipPath1); fill:none;" y2="350" />
      <line x1="162" x2="230" y1="370" style="clip-path:url(#clipPath1); fill:none;" y2="370" />
      <path d="M162.5 350 C155.596435546875 350 150 354.4771423339844 150 360 C150 365.5228576660156 155.596435546875 370 162.5 370" style="fill:none; clip-path:url(#clipPath1);" />
      <path d="M229.5 370 C236.403564453125 370 242 365.5228576660156 242 360 C242 354.4771423339844 236.403564453125 350 229.5 350" style="fill:none; clip-path:url(#clipPath1);" />
    </g>
    <g style="font-family:sans-serif;">
      <text x="166" y="363" style="clip-path:url(#clipPath5); stroke:none;">Jobstep 3
      </text>
    </g>
    <g style="fill:navy; stroke:navy;">
      <rect x="395" y="273" width="76" style="clip-path:url(#clipPath1); stroke:none;" height="20" />
      <path d="M395.5 273 C388.596435546875 273 383 277.4771423339844 383 283 C383 288.5228576660156 388.596435546875 293 395.5 293 L395.5 283 Z" style="clip-path:url(#clipPath1); stroke:none;" />
      <path d="M470.5 293 C477.403564453125 293 483 288.5228576660156 483 283 C483 277.4771423339844 477.403564453125 273 470.5 273 L470.5 283 Z" style="clip-path:url(#clipPath1); stroke:none;" />
      <rect x="392" y="270" width="76" style="clip-path:url(#clipPath1); fill:white; stroke:none;" height="20" />
      <path d="M392.5 270 C385.596435546875 270 380 274.4771423339844 380 280 C380 285.5228576660156 385.596435546875 290 392.5 290 L392.5 280 Z" style="fill:white; clip-path:url(#clipPath1); stroke:none;" />
      <path d="M467.5 290 C474.403564453125 290 480 285.5228576660156 480 280 C480 274.4771423339844 474.403564453125 270 467.5 270 L467.5 280 Z" style="fill:white; clip-path:url(#clipPath1); stroke:none;" />
      <line x1="392" x2="468" y1="270" style="clip-path:url(#clipPath1); fill:none; stroke:black;" y2="270" />
      <line x1="392" x2="468" y1="290" style="clip-path:url(#clipPath1); fill:none; stroke:black;" y2="290" />
      <path d="M392.5 270 C385.596435546875 270 380 274.4771423339844 380 280 C380 285.5228576660156 385.596435546875 290 392.5 290" style="fill:none; clip-path:url(#clipPath1); stroke:black;" />
      <path d="M467.5 290 C474.403564453125 290 480 285.5228576660156 480 280 C480 274.4771423339844 474.403564453125 270 467.5 270" style="fill:none; clip-path:url(#clipPath1); stroke:black;" />
    </g>
    <g style="font-family:sans-serif;">
      <text x="396" y="283" style="clip-path:url(#clipPath6); stroke:none;">Jobstep 2b
      </text>
    </g>
    <g style="fill:navy; stroke:navy;">
      <rect x="265" y="143" width="68" style="clip-path:url(#clipPath1); stroke:none;" height="20" />
      <path d="M265.5 143 C258.596435546875 143 253 147.47715759277344 253 153 C253 158.52284240722656 258.596435546875 163 265.5 163 L265.5 153 Z" style="clip-path:url(#clipPath1); stroke:none;" />
      <path d="M332.5 163 C339.403564453125 163 345 158.52284240722656 345 153 C345 147.47715759277344 339.403564453125 143 332.5 143 L332.5 153 Z" style="clip-path:url(#clipPath1); stroke:none;" />
      <rect x="262" y="140" width="68" style="clip-path:url(#clipPath1); fill:white; stroke:none;" height="20" />
      <path d="M262.5 140 C255.596435546875 140 250 144.47715759277344 250 150 C250 155.52284240722656 255.596435546875 160 262.5 160 L262.5 150 Z" style="fill:white; clip-path:url(#clipPath1); stroke:none;" />
      <path d="M329.5 160 C336.403564453125 160 342 155.52284240722656 342 150 C342 144.47715759277344 336.403564453125 140 329.5 140 L329.5 150 Z" style="fill:white; clip-path:url(#clipPath1); stroke:none;" />
      <line x1="262" x2="330" y1="140" style="clip-path:url(#clipPath1); fill:none; stroke:black;" y2="140" />
      <line x1="262" x2="330" y1="160" style="clip-path:url(#clipPath1); fill:none; stroke:black;" y2="160" />
      <path d="M262.5 140 C255.596435546875 140 250 144.47715759277344 250 150 C250 155.52284240722656 255.596435546875 160 262.5 160" style="fill:none; clip-path:url(#clipPath1); stroke:black;" />
      <path d="M329.5 160 C336.403564453125 160 342 155.52284240722656 342 150 C342 144.47715759277344 336.403564453125 140 329.5 140" style="fill:none; clip-path:url(#clipPath1); stroke:black;" />
    </g>
    <g style="font-family:sans-serif;">
      <text x="266" y="153" style="clip-path:url(#clipPath7); stroke:none;">Jobstep 1
      </text>
    </g>
    <g>
      <line x1="298" x2="298" y1="65" style="clip-path:url(#clipPath1); fill:none;" y2="140" />
      <line x1="300" x2="300" y1="163" style="clip-path:url(#clipPath1); fill:none;" y2="210" />
      <line x1="300" x2="201" y1="216" style="clip-path:url(#clipPath1); fill:none;" y2="270" />
      <line x1="308" x2="308" y1="436" style="clip-path:url(#clipPath1); fill:none;" y2="500" />
      <line x1="197" x2="310" y1="373" style="clip-path:url(#clipPath1); fill:none;" y2="430" />
      <line x1="197" x2="197" y1="293" style="clip-path:url(#clipPath1); fill:none;" y2="350" />
      <line x1="431" x2="325" y1="293" style="clip-path:url(#clipPath1); fill:none;" y2="430" />
      <line x1="315" x2="431" y1="216" style="clip-path:url(#clipPath1); fill:none;" y2="270" />
      <line x1="298" x2="303" y1="140" style="clip-path:url(#clipPath1); fill:none;" y2="128" />
      <line x1="298" x2="293" y1="140" style="clip-path:url(#clipPath1); fill:none;" y2="128" />
      <line x1="300" x2="305" y1="210" style="clip-path:url(#clipPath1); fill:none;" y2="198" />
      <line x1="300" x2="295" y1="210" style="clip-path:url(#clipPath1); fill:none;" y2="198" />
      <line x1="201" x2="214" y1="270" style="clip-path:url(#clipPath1); fill:none;" y2="269" />
      <line x1="201" x2="209" y1="270" style="clip-path:url(#clipPath1); fill:none;" y2="260" />
      <line x1="308" x2="313" y1="500" style="clip-path:url(#clipPath1); fill:none;" y2="488" />
      <line x1="308" x2="303" y1="500" style="clip-path:url(#clipPath1); fill:none;" y2="488" />
      <line x1="310" x2="302" y1="430" style="clip-path:url(#clipPath1); fill:none;" y2="420" />
      <line x1="310" x2="297" y1="430" style="clip-path:url(#clipPath1); fill:none;" y2="429" />
      <line x1="197" x2="202" y1="350" style="clip-path:url(#clipPath1); fill:none;" y2="338" />
      <line x1="197" x2="192" y1="350" style="clip-path:url(#clipPath1); fill:none;" y2="338" />
      <line x1="325" x2="336" y1="430" style="clip-path:url(#clipPath1); fill:none;" y2="424" />
      <line x1="325" x2="328" y1="430" style="clip-path:url(#clipPath1); fill:none;" y2="417" />
      <line x1="431" x2="422" y1="270" style="clip-path:url(#clipPath1); fill:none;" y2="260" />
      <line x1="431" x2="418" y1="270" style="clip-path:url(#clipPath1); fill:none;" y2="269" />
    </g>
  </g>
</svg>
