<?xml version="1.0" encoding="UTF-8"?>

<!DOCTYPE svg PUBLIC '-//W3C//DTD SVG 20001102//EN' 'http://www.w3.org/TR/2000/CR-SVG-20001102/DTD/svg-20001102.dtd'>
<svg style="fill-opacity:1; color-rendering:auto; color-interpolation:sRGB; text-rendering:auto; stroke:black; stroke-linecap:square; stroke-miterlimit:10; shape-rendering:auto; stroke-opacity:1; fill:black; stroke-dasharray:none; font-weight:normal; stroke-width:1; font-family:&apos;sansserif&apos;; font-style:normal; stroke-linejoin:miter; font-size:12; stroke-dashoffset:0; image-rendering:auto;" width="1245" height="784">
  <!--Generated by the Batik Graphics2D SVG Generator-->
  <defs id="genericDefs" />
  <g>
    <defs id="defs1">
      <clipPath clipPathUnits="userSpaceOnUse" id="clipPath1">
        <path d="M0 0 L1245 0 L1245 784 L0 784 L0 0 Z" />
      </clipPath>
      <clipPath clipPathUnits="userSpaceOnUse" id="clipPath2">
        <path d="M755 470 L755 528 L1033 528 L1033 470 Z" />
      </clipPath>
      <clipPath clipPathUnits="userSpaceOnUse" id="clipPath3">
        <path d="M655 180 L655 241 L787 241 L787 180 Z" />
      </clipPath>
      <clipPath clipPathUnits="userSpaceOnUse" id="clipPath4">
        <path d="M805 700 L805 761 L894 761 L894 700 Z" />
      </clipPath>
      <clipPath clipPathUnits="userSpaceOnUse" id="clipPath5">
        <path d="M415 230 L415 291 L519 291 L519 230 Z" />
      </clipPath>
      <clipPath clipPathUnits="userSpaceOnUse" id="clipPath6">
        <path d="M155 330 L155 391 L339 391 L339 330 Z" />
      </clipPath>
      <clipPath clipPathUnits="userSpaceOnUse" id="clipPath7">
        <path d="M205 60 L205 143 L283 143 L283 60 Z" />
      </clipPath>
      <clipPath clipPathUnits="userSpaceOnUse" id="clipPath8">
        <path d="M725 320 L725 381 L805 381 L805 320 Z" />
      </clipPath>
      <clipPath clipPathUnits="userSpaceOnUse" id="clipPath9">
        <path d="M405 450 L405 526 L561 526 L561 450 Z" />
      </clipPath>
      <clipPath clipPathUnits="userSpaceOnUse" id="clipPath10">
        <path d="M415 710 L415 771 L572 771 L572 710 Z" />
      </clipPath>
      <clipPath clipPathUnits="userSpaceOnUse" id="clipPath11">
        <path d="M1005 200 L1005 258 L1109 258 L1109 200 Z" />
      </clipPath>
    </defs>
    <g style="fill:rgb(255,153,153); stroke:rgb(255,153,153);">
      <circle style="clip-path:url(#clipPath2); stroke:none;" r="15" cx="893" cy="485" />
      <line x1="878" x2="878" y1="470" style="clip-path:url(#clipPath2); fill:none; stroke:black;" y2="500" />
      <circle style="clip-path:url(#clipPath2); fill:none; stroke:black;" r="15" cx="893" cy="485" />
      <text x="846" y="512" style="clip-path:url(#clipPath2); fill:black; font-family:sans-serif; stroke:none;">&lt;&lt;boundary&gt;&gt;
      </text>
    </g>
    <g style="font-weight:bold; font-family:sans-serif;">
      <text x="759" y="527" style="clip-path:url(#clipPath2); stroke:none;">ExecutionController:CommonExecutionCon
      </text>
      <line x1="759" x2="1027" y1="529" style="clip-path:url(#clipPath2); fill:none;" y2="529" />
      <text x="759" y="542" style="clip-path:url(#clipPath2); stroke:none;">nector
      </text>
      <line x1="759" x2="798" y1="544" style="clip-path:url(#clipPath2); fill:none;" y2="544" />
    </g>
    <g style="fill:white; stroke:white;">
      <circle style="clip-path:url(#clipPath3); stroke:none;" r="13.5" cx="720.5" cy="193.5" />
      <rect x="707" y="207" width="27" style="clip-path:url(#clipPath3); stroke:none;" height="3" />
      <circle style="clip-path:url(#clipPath3); fill:none; stroke:black;" r="13.5" cx="720.5" cy="193.5" />
      <rect x="707" y="207" width="27" style="clip-path:url(#clipPath3); fill:none; stroke:black;" height="3" />
      <text x="685" y="222" style="clip-path:url(#clipPath3); fill:black; font-family:sans-serif; stroke:none;">&lt;&lt;entity&gt;&gt;
      </text>
    </g>
    <g style="font-weight:bold; font-family:sans-serif;">
      <text x="659" y="237" style="clip-path:url(#clipPath3); stroke:none;">Workflow:Workflow
      </text>
      <line x1="659" x2="782" y1="239" style="clip-path:url(#clipPath3); fill:none;" y2="239" />
    </g>
    <g style="fill:rgb(255,153,153); stroke:rgb(255,153,153);">
      <circle style="clip-path:url(#clipPath4); stroke:none;" r="13.5" cx="848.5" cy="716.5" />
      <circle style="clip-path:url(#clipPath4); fill:none; stroke:black;" r="13.5" cx="848.5" cy="716.5" />
      <line x1="845" x2="854" y1="703" style="clip-path:url(#clipPath4); fill:none; stroke:black;" y2="700" />
      <line x1="845" x2="854" y1="704" style="clip-path:url(#clipPath4); fill:none; stroke:black;" y2="708" />
      <circle style="clip-path:url(#clipPath4); fill:none; stroke:black;" r="1" cx="847" cy="710" />
      <line x1="847" x2="847" y1="711" style="clip-path:url(#clipPath4); fill:none; stroke:black;" y2="718" />
      <line x1="847" x2="841" y1="718" style="clip-path:url(#clipPath4); fill:none; stroke:black;" y2="722" />
      <line x1="847" x2="853" y1="718" style="clip-path:url(#clipPath4); fill:none; stroke:black;" y2="722" />
      <line x1="843" x2="851" y1="714" style="clip-path:url(#clipPath4); fill:none; stroke:black;" y2="714" />
      <text x="809" y="742" style="clip-path:url(#clipPath4); fill:black; font-family:sans-serif; stroke:none;">&lt;&lt;worker&gt;&gt;
      </text>
    </g>
    <g style="font-weight:bold; font-family:sans-serif;">
      <text x="813" y="757" style="clip-path:url(#clipPath4); stroke:none;">Application
      </text>
      <line x1="813" x2="884" y1="759" style="clip-path:url(#clipPath4); fill:none;" y2="759" />
    </g>
    <g style="fill:rgb(153,153,255); stroke:rgb(153,153,255);">
      <circle style="clip-path:url(#clipPath5); stroke:none;" r="15" cx="466" cy="245" />
      <line x1="451" x2="451" y1="230" style="clip-path:url(#clipPath5); fill:none; stroke:black;" y2="260" />
      <circle style="clip-path:url(#clipPath5); fill:none; stroke:black;" r="15" cx="466" cy="245" />
      <text x="419" y="272" style="clip-path:url(#clipPath5); fill:black; font-family:sans-serif; stroke:none;">&lt;&lt;boundary&gt;&gt;
      </text>
    </g>
    <g style="font-weight:bold; font-family:sans-serif;">
      <text x="448" y="287" style="clip-path:url(#clipPath5); stroke:none;">Portal
      </text>
      <line x1="448" x2="484" y1="289" style="clip-path:url(#clipPath5); fill:none;" y2="289" />
    </g>
    <g style="fill:rgb(153,255,153); stroke:rgb(153,255,153);">
      <circle style="clip-path:url(#clipPath6); stroke:none;" r="13.5" cx="246.5" cy="346.5" />
      <circle style="clip-path:url(#clipPath6); fill:none; stroke:black;" r="13.5" cx="246.5" cy="346.5" />
      <line x1="243" x2="252" y1="333" style="clip-path:url(#clipPath6); fill:none; stroke:black;" y2="330" />
      <line x1="243" x2="252" y1="334" style="clip-path:url(#clipPath6); fill:none; stroke:black;" y2="338" />
      <text x="207" y="372" style="clip-path:url(#clipPath6); fill:black; font-family:sans-serif; stroke:none;">&lt;&lt;control&gt;&gt;
      </text>
    </g>
    <g style="font-weight:bold; font-family:sans-serif;">
      <text x="159" y="387" style="clip-path:url(#clipPath6); stroke:none;">Job Controller:JobController
      </text>
      <line x1="159" x2="334" y1="389" style="clip-path:url(#clipPath6); fill:none;" y2="389" />
    </g>
    <g style="fill:white; stroke:white;">
      <polygon style="clip-path:url(#clipPath7); stroke:none;" points=" 244 76 244 82 259 82 259 84 244 84 244 96 259 111 259 112 257 112 243 98 229 112 227 112 227 111 242 96 242 84 227 84 227 82 242 82 242 76 244 76" />
      <circle style="clip-path:url(#clipPath7); stroke:none;" r="8" cx="243" cy="68" />
      <polygon style="fill:none; clip-path:url(#clipPath7); stroke:black;" points=" 244 76 244 82 259 82 259 84 244 84 244 96 259 111 259 112 257 112 243 98 229 112 227 112 227 111 242 96 242 84 227 84 227 82 242 82 242 76 244 76" />
      <circle style="clip-path:url(#clipPath7); fill:none; stroke:black;" r="8" cx="243" cy="68" />
      <text x="209" y="124" style="clip-path:url(#clipPath7); fill:black; font-family:sans-serif; stroke:none;">&lt;&lt;actor&gt;&gt;
      </text>
    </g>
    <g style="font-weight:bold; font-family:sans-serif;">
      <text x="229" y="139" style="clip-path:url(#clipPath7); stroke:none;">User
      </text>
      <line x1="229" x2="257" y1="141" style="clip-path:url(#clipPath7); fill:none;" y2="141" />
    </g>
    <g style="fill:white; stroke:white;">
      <circle style="clip-path:url(#clipPath8); stroke:none;" r="13.5" cx="764.5" cy="333.5" />
      <rect x="751" y="347" width="27" style="clip-path:url(#clipPath8); stroke:none;" height="3" />
      <circle style="clip-path:url(#clipPath8); fill:none; stroke:black;" r="13.5" cx="764.5" cy="333.5" />
      <rect x="751" y="347" width="27" style="clip-path:url(#clipPath8); fill:none; stroke:black;" height="3" />
      <text x="729" y="362" style="clip-path:url(#clipPath8); fill:black; font-family:sans-serif; stroke:none;">&lt;&lt;entity&gt;&gt;
      </text>
    </g>
    <g style="font-weight:bold; font-family:sans-serif;">
      <text x="735" y="377" style="clip-path:url(#clipPath8); stroke:none;">Tool:Tool
      </text>
      <line x1="735" x2="794" y1="379" style="clip-path:url(#clipPath8); fill:none;" y2="379" />
    </g>
    <g style="fill:rgb(153,255,153); stroke:rgb(153,255,153);">
      <circle style="clip-path:url(#clipPath9); stroke:none;" r="15" cx="482" cy="465" />
      <line x1="467" x2="467" y1="450" style="clip-path:url(#clipPath9); fill:none; stroke:black;" y2="480" />
      <circle style="clip-path:url(#clipPath9); fill:none; stroke:black;" r="15" cx="482" cy="465" />
      <text x="435" y="492" style="clip-path:url(#clipPath9); fill:black; font-family:sans-serif; stroke:none;">&lt;&lt;boundary&gt;&gt;
      </text>
    </g>
    <g style="font-weight:bold; font-family:sans-serif;">
      <text x="410" y="507" style="clip-path:url(#clipPath9); stroke:none;">Scheduler:JobScheduler
      </text>
      <line x1="410" x2="554" y1="509" style="clip-path:url(#clipPath9); fill:none;" y2="509" />
      <text x="409" y="522" style="clip-path:url(#clipPath9); font-weight:normal; stroke:none;">[waiting to schedule jobs]
      </text>
    </g>
    <g style="fill:rgb(255,255,102); stroke:rgb(255,255,102);">
      <circle style="clip-path:url(#clipPath10); stroke:none;" r="15" cx="493" cy="725" />
      <line x1="478" x2="478" y1="710" style="clip-path:url(#clipPath10); fill:none; stroke:black;" y2="740" />
      <circle style="clip-path:url(#clipPath10); fill:none; stroke:black;" r="15" cx="493" cy="725" />
      <text x="445" y="752" style="clip-path:url(#clipPath10); fill:black; font-family:sans-serif; stroke:none;">&lt;&lt;boundary&gt;&gt;
      </text>
    </g>
    <g style="font-weight:bold; font-family:sans-serif;">
      <text x="419" y="767" style="clip-path:url(#clipPath10); stroke:none;">Registry:RegistryService
      </text>
      <line x1="419" x2="567" y1="769" style="clip-path:url(#clipPath10); fill:none;" y2="769" />
    </g>
    <g style="fill:navy; stroke:navy;">
      <rect x="1008" y="203" width="103" style="clip-path:url(#clipPath1); stroke:none;" height="57" />
      <rect x="1005" y="200" width="103" style="clip-path:url(#clipPath1); fill:white; stroke:none;" height="57" />
      <rect x="1005" y="200" width="103" style="clip-path:url(#clipPath1); fill:none; stroke:black;" height="57" />
    </g>
    <g style="font-family:sans-serif;">
      <text x="1009" y="212" style="clip-path:url(#clipPath11); stroke:none;">&lt;&lt;Database&gt;&gt;
      </text>
      <text x="1009" y="227" style="clip-path:url(#clipPath11); font-weight:bold; stroke:none;">Storage Service
      </text>
      <line x1="1009" x2="1103" y1="229" style="clip-path:url(#clipPath11); fill:none; font-weight:bold;" y2="229" />
    </g>
    <g>
      <line x1="563" x2="755" y1="499" style="clip-path:url(#clipPath1); fill:none;" y2="499" />
      <line x1="489" x2="489" y1="528" style="clip-path:url(#clipPath1); fill:none;" y2="710" />
      <line x1="543" x2="766" y1="450" style="clip-path:url(#clipPath1); fill:none; stroke:blue;" y2="383" />
      <line x1="523" x2="680" y1="450" style="clip-path:url(#clipPath1); fill:none; stroke:blue;" y2="243" />
      <line x1="243" x2="468" y1="145" style="clip-path:url(#clipPath1); fill:none; stroke:blue;" y2="230" />
      <line x1="248" x2="484" y1="393" style="clip-path:url(#clipPath1); fill:none;" y2="450" />
      <line x1="521" x2="655" y1="242" style="clip-path:url(#clipPath1); fill:none; stroke:blue;" y2="223" />
      <line x1="468" x2="248" y1="293" style="clip-path:url(#clipPath1); fill:none;" y2="330" />
      <line x1="757" x2="757" y1="243" style="clip-path:url(#clipPath1); fill:none; stroke:rgb(0,0,130);" y2="320" />
      <line x1="781" x2="781" y1="470" style="clip-path:url(#clipPath1); fill:none; stroke:blue;" y2="383" />
      <line x1="850" x2="850" y1="530" style="clip-path:url(#clipPath1); fill:none;" y2="700" />
      <line x1="1020" x2="1020" y1="470" style="clip-path:url(#clipPath1); fill:none;" y2="260" />
      <line x1="766" x2="753" y1="383" style="clip-path:url(#clipPath1); fill:none; stroke:blue;" y2="382" />
      <line x1="766" x2="756" y1="383" style="clip-path:url(#clipPath1); fill:none; stroke:blue;" y2="391" />
      <text x="581" y="453" style="clip-path:url(#clipPath1); fill:blue; font-family:sans-serif; stroke:none;">selects tool for execution
      </text>
      <line x1="680" x2="669" y1="243" style="clip-path:url(#clipPath1); fill:none; font-family:sans-serif; stroke:blue;" y2="250" />
      <line x1="680" x2="677" y1="243" style="clip-path:url(#clipPath1); fill:none; font-family:sans-serif; stroke:blue;" y2="256" />
      <text x="545" y="443" style="clip-path:url(#clipPath1); fill:blue; font-family:sans-serif; stroke:none;">reads
      </text>
      <line x1="468" x2="459" y1="230" style="clip-path:url(#clipPath1); fill:none; font-family:sans-serif; stroke:blue;" y2="221" />
      <line x1="468" x2="455" y1="230" style="clip-path:url(#clipPath1); fill:none; font-family:sans-serif; stroke:blue;" y2="230" />
      <text x="301" y="157" style="clip-path:url(#clipPath1); fill:blue; font-family:sans-serif; stroke:none;">uses
      </text>
      <line x1="655" x2="642" y1="223" style="clip-path:url(#clipPath1); fill:none; font-family:sans-serif; stroke:blue;" y2="220" />
      <line x1="655" x2="644" y1="223" style="clip-path:url(#clipPath1); fill:none; font-family:sans-serif; stroke:blue;" y2="230" />
      <text x="564" y="249" style="clip-path:url(#clipPath1); fill:blue; font-family:sans-serif; stroke:none;">used to create
      </text>
      <line x1="757" x2="762" y1="320" style="clip-path:url(#clipPath1); fill:none; font-family:sans-serif; stroke:rgb(0,0,130);" y2="308" />
      <line x1="757" x2="752" y1="320" style="clip-path:url(#clipPath1); fill:none; font-family:sans-serif; stroke:rgb(0,0,130);" y2="308" />
      <polygon points=" 757 243 761 251 757 259 753 251" style="fill:white; clip-path:url(#clipPath1); font-family:sans-serif; stroke:none;" />
      <polygon points=" 757 243 761 251 757 259 753 251" style="fill:none; clip-path:url(#clipPath1); font-family:sans-serif; stroke:rgb(0,0,130);" />
      <line x1="753" x2="757" y1="251" style="clip-path:url(#clipPath1); fill:none; font-family:sans-serif; stroke:rgb(0,0,130);" y2="243" />
      <line x1="781" x2="776" y1="383" style="clip-path:url(#clipPath1); fill:none; font-family:sans-serif; stroke:blue;" y2="395" />
      <line x1="781" x2="786" y1="383" style="clip-path:url(#clipPath1); fill:none; font-family:sans-serif; stroke:blue;" y2="395" />
      <text x="789" y="463" style="clip-path:url(#clipPath1); fill:blue; font-family:sans-serif; stroke:none;">obtains parameter values from
      </text>
      <text x="607" y="490" style="clip-path:url(#clipPath1); fill:rgb(50,50,0); font-family:sans-serif; stroke:none;">1.1.3: execute
      </text>
      <line x1="716" x2="694" y1="484" style="clip-path:url(#clipPath1); fill:none; font-family:sans-serif; stroke:rgb(50,50,0);" y2="484" />
      <polygon points=" 716 484 704 487 704 481" style="fill:white; clip-path:url(#clipPath1); font-family:sans-serif; stroke:none;" />
      <polygon style="fill:none; clip-path:url(#clipPath1); font-family:sans-serif;" points=" 716 484 704 487 704 481" />
      <line x1="704" x2="716" y1="481" style="clip-path:url(#clipPath1); fill:none; font-family:sans-serif;" y2="484" />
      <text x="607" y="473" style="clip-path:url(#clipPath1); fill:rgb(50,50,0); font-family:sans-serif; stroke:none;">1.1.2: init
      </text>
      <line x1="688" x2="666" y1="467" style="clip-path:url(#clipPath1); fill:none; font-family:sans-serif; stroke:rgb(50,50,0);" y2="467" />
      <polygon points=" 688 467 676 470 676 464" style="fill:white; clip-path:url(#clipPath1); font-family:sans-serif; stroke:none;" />
      <polygon style="fill:none; clip-path:url(#clipPath1); font-family:sans-serif;" points=" 688 467 676 470 676 464" />
      <line x1="676" x2="688" y1="464" style="clip-path:url(#clipPath1); fill:none; font-family:sans-serif;" y2="467" />
      <text x="14" y="620" style="clip-path:url(#clipPath1); fill:rgb(50,50,0); font-family:sans-serif; stroke:none;">1.1.1: CeaService:=getEndPointByIdentifier(ToolName):String //queryLocation
      </text>
      <line x1="466" x2="466" y1="625" style="clip-path:url(#clipPath1); fill:none; font-family:sans-serif; stroke:rgb(50,50,0);" y2="603" />
      <polygon points=" 466 625 463 613 469 613" style="fill:white; clip-path:url(#clipPath1); font-family:sans-serif; stroke:none;" />
      <polygon style="fill:none; clip-path:url(#clipPath1); font-family:sans-serif;" points=" 466 625 463 613 469 613" />
      <line x1="469" x2="466" y1="613" style="clip-path:url(#clipPath1); fill:none; font-family:sans-serif;" y2="625" />
    </g>
    <g style="fill:rgb(50,50,0); font-style:italic; font-family:sans-serif; stroke:rgb(50,50,0);">
      <line x1="395" x2="374" y1="409" style="clip-path:url(#clipPath1); fill:none;" y2="404" />
      <polygon style="fill:white; clip-path:url(#clipPath1); stroke:none;" points=" 395 409 383 409 384 403" />
      <polygon style="fill:none; clip-path:url(#clipPath1); stroke:black;" points=" 395 409 383 409 384 403" />
      <line x1="384" x2="395" y1="403" style="clip-path:url(#clipPath1); fill:none; stroke:black;" y2="409" />
      <text x="397" y="412" style="clip-path:url(#clipPath1); stroke:none;">1.1: scheduleNewJob(JobURN):void
      </text>
      <text x="148" y="302" style="font-style:normal; clip-path:url(#clipPath1); stroke:none;">1: submitJob(Workflow):JobURN
      </text>
      <line x1="332" x2="354" y1="298" style="clip-path:url(#clipPath1); fill:none; font-style:normal;" y2="295" />
      <polygon points=" 332 298 343 293 344 299" style="font-style:normal; fill:white; clip-path:url(#clipPath1); stroke:none;" />
      <polygon points=" 332 298 343 293 344 299" style="font-style:normal; fill:none; clip-path:url(#clipPath1); stroke:black;" />
      <line x1="344" x2="332" y1="299" style="clip-path:url(#clipPath1); fill:none; font-style:normal; stroke:black;" y2="298" />
      <line x1="861" x2="861" y1="621" style="clip-path:url(#clipPath1); fill:none; font-style:normal;" y2="599" />
      <polygon points=" 861 621 858 609 864 609" style="font-style:normal; fill:white; clip-path:url(#clipPath1); stroke:none;" />
      <polygon points=" 861 621 858 609 864 609" style="font-style:normal; fill:none; clip-path:url(#clipPath1); stroke:black;" />
      <line x1="864" x2="861" y1="609" style="clip-path:url(#clipPath1); fill:none; font-style:normal; stroke:black;" y2="621" />
      <text x="866" y="616" style="font-style:normal; clip-path:url(#clipPath1); stroke:none;">1.1.3.1: execute
      </text>
      <line x1="1031" x2="1031" y1="349" style="clip-path:url(#clipPath1); fill:none; font-style:normal;" y2="371" />
      <polygon points=" 1031 349 1034 361 1028 361" style="font-style:normal; fill:white; clip-path:url(#clipPath1); stroke:none;" />
      <polygon points=" 1031 349 1034 361 1028 361" style="font-style:normal; fill:none; clip-path:url(#clipPath1); stroke:black;" />
      <line x1="1028" x2="1031" y1="361" style="clip-path:url(#clipPath1); fill:none; font-style:normal; stroke:black;" y2="349" />
      <text x="1036" y="366" style="font-style:normal; clip-path:url(#clipPath1); stroke:none;">1.1.2.1: get indirect references
      </text>
    </g>
  </g>
</svg>
